<?xml version="1.0" encoding="UTF-8" standalone="no"?>
<!-- Created with Inkscape (http://www.inkscape.org/) -->

<svg
   xmlns:dc="http://purl.org/dc/elements/1.1/"
   xmlns:cc="http://creativecommons.org/ns#"
   xmlns:rdf="http://www.w3.org/1999/02/22-rdf-syntax-ns#"
   xmlns:svg="http://www.w3.org/2000/svg"
   xmlns="http://www.w3.org/2000/svg"
   xmlns:sodipodi="http://sodipodi.sourceforge.net/DTD/sodipodi-0.dtd"
   xmlns:inkscape="http://www.inkscape.org/namespaces/inkscape"
   width="340"
   height="100"
   viewBox="0 0 89.958329 26.458334"
   version="1.1"
   id="svg8"
   inkscape:export-filename="/home/gdritter/pictures/logos/brick/brick-final-clearbg-with-text.png"
   inkscape:export-xdpi="115.2"
   inkscape:export-ydpi="115.2"
   inkscape:version="0.92.2 5c3e80d, 2017-08-06"
   sodipodi:docname="brick-final-clearbg-with-text.svg">
  <defs
     id="defs2" />
  <sodipodi:namedview
     id="base"
     pagecolor="#ffffff"
     bordercolor="#666666"
     borderopacity="1.0"
     inkscape:pageopacity="0"
     inkscape:pageshadow="2"
     inkscape:zoom="5.6"
     inkscape:cx="203.65896"
     inkscape:cy="31.608902"
     inkscape:document-units="px"
     inkscape:current-layer="layer1"
     showgrid="true"
     units="px"
     inkscape:window-width="3838"
     inkscape:window-height="2141"
     inkscape:window-x="1920"
     inkscape:window-y="17"
     inkscape:window-maximized="0"
     inkscape:pagecheckerboard="false">
    <inkscape:grid
       type="xygrid"
       id="grid815" />
  </sodipodi:namedview>
  <metadata
     id="metadata5">
    <rdf:RDF>
      <cc:Work
         rdf:about="">
        <dc:format>image/svg+xml</dc:format>
        <dc:type
           rdf:resource="http://purl.org/dc/dcmitype/StillImage" />
        <dc:title />
      </cc:Work>
    </rdf:RDF>
  </metadata>
  <g
     inkscape:label="Layer 1"
     inkscape:groupmode="layer"
     id="layer1"
     transform="translate(0,-270.54165)">
    <rect
       style="fill:#800000;fill-opacity:1;stroke:none;stroke-width:0.45861107;stroke-linecap:round;stroke-linejoin:miter;stroke-miterlimit:4;stroke-dasharray:none;stroke-dashoffset:0;stroke-opacity:1"
       id="rect938"
       width="3.4395833"
       height="3.4395833"
       x="7.5406251"
       y="274.11353" />
    <rect
       style="fill:#800000;fill-opacity:1;stroke:none;stroke-width:0.45861107;stroke-linecap:round;stroke-linejoin:miter;stroke-miterlimit:4;stroke-dasharray:none;stroke-dashoffset:0;stroke-opacity:1"
       id="rect940"
       width="3.4395833"
       height="3.4395833"
       x="11.509376"
       y="274.11353" />
    <rect
       style="fill:#aa0000;fill-opacity:1;stroke:none;stroke-width:0.45861107;stroke-linecap:round;stroke-linejoin:miter;stroke-miterlimit:4;stroke-dasharray:none;stroke-dashoffset:0;stroke-opacity:1"
       id="rect942"
       width="3.4395833"
       height="3.4395833"
       x="15.478126"
       y="278.08228" />
    <rect
       style="fill:#aa0000;fill-opacity:1;stroke:none;stroke-width:0.45861107;stroke-linecap:round;stroke-linejoin:miter;stroke-miterlimit:4;stroke-dasharray:none;stroke-dashoffset:0;stroke-opacity:1"
       id="rect944"
       width="3.4395833"
       height="3.4395833"
       x="11.509376"
       y="282.05106" />
    <rect
       style="fill:#d40000;fill-opacity:1;stroke:none;stroke-width:0.45861107;stroke-linecap:round;stroke-linejoin:miter;stroke-miterlimit:4;stroke-dasharray:none;stroke-dashoffset:0;stroke-opacity:1"
       id="rect946"
       width="3.4395833"
       height="3.4395833"
       x="15.478126"
       y="286.01978" />
    <rect
       style="fill:#d40000;fill-opacity:1;stroke:none;stroke-width:0.45861107;stroke-linecap:round;stroke-linejoin:miter;stroke-miterlimit:4;stroke-dasharray:none;stroke-dashoffset:0;stroke-opacity:1"
       id="rect948"
       width="3.4395833"
       height="3.4395833"
       x="11.509376"
       y="289.98853" />
    <rect
       style="fill:#d40000;fill-opacity:1;stroke:none;stroke-width:0.45861107;stroke-linecap:round;stroke-linejoin:miter;stroke-miterlimit:4;stroke-dasharray:none;stroke-dashoffset:0;stroke-opacity:1"
       id="rect950"
       width="3.4395833"
       height="3.4395833"
       x="7.5406251"
       y="289.98853" />
    <rect
       style="fill:#aa0000;fill-opacity:1;stroke:none;stroke-width:0.45861107;stroke-linecap:round;stroke-linejoin:miter;stroke-miterlimit:4;stroke-dasharray:none;stroke-dashoffset:0;stroke-opacity:1"
       id="rect952"
       width="3.4395833"
       height="3.4395833"
       x="7.5406251"
       y="286.01978" />
    <rect
       style="fill:#800000;fill-opacity:1;stroke:none;stroke-width:0.45861107;stroke-linecap:round;stroke-linejoin:miter;stroke-miterlimit:4;stroke-dasharray:none;stroke-dashoffset:0;stroke-opacity:1"
       id="rect954"
       width="3.4395833"
       height="3.4395833"
       x="7.5406251"
       y="282.05106" />
    <rect
       style="fill:#800000;fill-opacity:1;stroke:none;stroke-width:0.45861107;stroke-linecap:round;stroke-linejoin:miter;stroke-miterlimit:4;stroke-dasharray:none;stroke-dashoffset:0;stroke-opacity:1"
       id="rect956"
       width="3.4395833"
       height="3.4395833"
       x="7.5406251"
       y="278.08228" />
    <g
       aria-label="brick"
       style="font-style:normal;font-variant:normal;font-weight:normal;font-stretch:normal;font-size:11.28888893px;line-height:6.61458302px;font-family:Prociono;-inkscape-font-specification:Prociono;letter-spacing:0px;word-spacing:0px;fill:#000000;fill-opacity:1;stroke:none;stroke-width:0.26458332px;stroke-linecap:butt;stroke-linejoin:miter;stroke-opacity:1"
       id="text852">
      <path
         d="m 38.142522,285.65184 q 0,1.00045 -0.223243,1.83554 -0.214974,0.83509 -0.65319,1.43867 -0.438216,0.60358 -1.091406,0.94258 -0.65319,0.33073 -1.521354,0.33073 -0.785482,0 -1.364258,-0.28939 -0.570507,-0.29765 -0.983919,-0.82682 l -0.107487,0.95085 h -2.067057 v -12.7 h 2.298568 v 4.56406 q 0.396874,-0.46302 0.934309,-0.71934 0.545703,-0.25631 1.273308,-0.25631 0.876432,0 1.529622,0.339 0.661458,0.33899 1.099674,0.94257 0.438216,0.60358 0.65319,1.44694 0.223243,0.8351 0.223243,1.82728 z m -2.298568,-0.17364 q 0,-0.5457 -0.08268,-1.03353 -0.08268,-0.48782 -0.289388,-0.85162 -0.198438,-0.37207 -0.545703,-0.58705 -0.347266,-0.21497 -0.868164,-0.21497 -0.628386,0 -1.025261,0.26458 -0.388607,0.26458 -0.60358,0.72761 v 3.5636 q 0.214973,0.46302 0.60358,0.72761 0.396875,0.26458 1.041797,0.26458 0.520898,0 0.859896,-0.19844 0.338997,-0.2067 0.537435,-0.56224 0.206705,-0.3638 0.289388,-0.85162 0.08268,-0.4961 0.08268,-1.07487 z"
         style="font-style:normal;font-variant:normal;font-weight:bold;font-stretch:normal;font-size:16.93333244px;font-family:'Roboto Mono';-inkscape-font-specification:'Roboto Mono Bold';fill:#000000;fill-opacity:1;stroke-width:0.26458332px"
         id="path902" />
      <path
         d="m 46.658797,280.92241 q 0.520899,0 0.959115,0.0744 0.446484,0.0661 0.719336,0.14883 l -0.338998,2.2903 q -0.454752,-0.10749 -0.934309,-0.1571 -0.471289,-0.0579 -0.901237,-0.0579 -0.967383,0 -1.554427,0.37207 -0.578776,0.37207 -0.868164,1.0666 v 5.37435 h -2.298568 v -8.94623 h 2.141471 l 0.107487,1.46348 q 0.545703,-0.76068 1.30638,-1.19063 0.760678,-0.43821 1.661914,-0.43821 z"
         style="font-style:normal;font-variant:normal;font-weight:bold;font-stretch:normal;font-size:16.93333244px;font-family:'Roboto Mono';-inkscape-font-specification:'Roboto Mono Bold';fill:#000000;fill-opacity:1;stroke-width:0.26458332px"
         id="path904" />
      <path
         d="m 50.999618,281.08777 h 4.869987 v 7.07761 h 2.422591 v 1.86862 h -7.292578 v -1.86862 h 2.546614 v -5.20072 h -2.546614 z m 2.38125,-2.2903 q 0,-0.26458 0.09095,-0.48782 0.09922,-0.23151 0.272852,-0.38861 0.173633,-0.16536 0.413411,-0.25631 0.248047,-0.091 0.545703,-0.091 0.611849,0 0.967383,0.34726 0.363802,0.339 0.363802,0.87643 0,0.53744 -0.363802,0.8847 -0.355534,0.339 -0.967383,0.339 -0.297656,0 -0.545703,-0.0909 -0.239778,-0.091 -0.413411,-0.24805 -0.173633,-0.16536 -0.272852,-0.3886 -0.09095,-0.23151 -0.09095,-0.4961 z"
         style="font-style:normal;font-variant:normal;font-weight:bold;font-stretch:normal;font-size:16.93333244px;font-family:'Roboto Mono';-inkscape-font-specification:'Roboto Mono Bold';fill:#000000;fill-opacity:1;stroke-width:0.26458332px"
         id="path906" />
      <path
         d="m 64.501636,288.36381 q 0.338997,0 0.644921,-0.0992 0.305925,-0.0992 0.537435,-0.28112 0.231511,-0.18191 0.355534,-0.43822 0.132292,-0.25632 0.115755,-0.57051 h 2.166276 q 0.01654,0.69453 -0.289388,1.28985 -0.297656,0.59531 -0.818554,1.02526 -0.520899,0.42994 -1.21543,0.67799 -0.686263,0.23978 -1.455208,0.23978 -1.041797,0 -1.827279,-0.34727 -0.785482,-0.35553 -1.314648,-0.96738 -0.520899,-0.61185 -0.79375,-1.4304 -0.264583,-0.82683 -0.264583,-1.7694 v -0.24805 q 0,-0.94258 0.264583,-1.76113 0.264583,-0.82683 0.79375,-1.43867 0.529166,-0.61185 1.30638,-0.96739 0.785482,-0.35553 1.81901,-0.35553 0.826823,0 1.529623,0.24805 0.702799,0.24804 1.207161,0.70279 0.51263,0.44649 0.79375,1.09141 0.28112,0.63665 0.264583,1.4304 h -2.166276 q 0.01654,-0.33072 -0.09922,-0.62838 -0.115756,-0.29766 -0.338998,-0.51263 -0.223242,-0.21497 -0.537435,-0.339 -0.314192,-0.13229 -0.686263,-0.13229 -0.545703,0 -0.901237,0.22324 -0.355533,0.22324 -0.570507,0.59531 -0.206706,0.37207 -0.297657,0.85163 -0.08268,0.47956 -0.08268,0.99219 v 0.24805 q 0,0.52089 0.08268,1.00872 0.08268,0.47956 0.289388,0.85163 0.214974,0.3638 0.570508,0.58704 0.363802,0.22324 0.917774,0.22324 z"
         style="font-style:normal;font-variant:normal;font-weight:bold;font-stretch:normal;font-size:16.93333244px;font-family:'Roboto Mono';-inkscape-font-specification:'Roboto Mono Bold';fill:#000000;fill-opacity:1;stroke-width:0.26458332px"
         id="path908" />
      <path
         d="m 74.059708,286.3381 -1.041797,0.96738 v 2.72852 h -2.298567 v -12.7 h 2.298567 v 7.2595 l 0.694532,-0.79375 2.4722,-2.71198 h 2.761588 l -3.373437,3.72897 3.844727,5.21726 h -2.819466 z"
         style="font-style:normal;font-variant:normal;font-weight:bold;font-stretch:normal;font-size:16.93333244px;font-family:'Roboto Mono';-inkscape-font-specification:'Roboto Mono Bold';fill:#000000;fill-opacity:1;stroke-width:0.26458332px"
         id="path910" />
    </g>
  </g>
</svg>
